<svg width="64" height="64" viewBox="0 0 64 64" fill="none" xmlns="http://www.w3.org/2000/svg">
<path d="M46.8798 46.7995C50.788 42.8653 52.9815 37.545 52.9815 31.9995C52.9815 26.4541 50.788 21.1337 46.8798 17.1995V17.1495H46.8298C42.8956 13.2413 37.5753 11.0479 32.0298 11.0479C26.4843 11.0479 21.164 13.2413 17.2298 17.1495H17.1798V17.1995C13.2716 21.1337 11.0781 26.4541 11.0781 31.9995C11.0781 37.545 13.2716 42.8653 17.1798 46.7995V46.8495H17.2298C21.164 50.7578 26.4843 52.9512 32.0298 52.9512C37.5753 52.9512 42.8956 50.7578 46.8298 46.8495H46.8798V46.7995ZM43.3098 41.8995C43.1185 41.7357 42.8724 41.6501 42.6207 41.6598C42.3691 41.6695 42.1303 41.7739 41.9522 41.952C41.7741 42.1301 41.6698 42.3688 41.6601 42.6205C41.6504 42.8722 41.736 43.1182 41.8998 43.3095L44.6898 46.0995C41.4724 49.0284 37.344 50.7589 32.9998 50.9995V46.9995C32.9998 46.7343 32.8944 46.48 32.7069 46.2924C32.5194 46.1049 32.265 45.9995 31.9998 45.9995C31.7346 45.9995 31.4802 46.1049 31.2927 46.2924C31.1052 46.48 30.9998 46.7343 30.9998 46.9995V50.9995C26.6556 50.7589 22.5272 49.0284 19.3098 46.0995L22.0998 43.3095C22.2636 43.1182 22.3492 42.8722 22.3395 42.6205C22.3298 42.3688 22.2255 42.1301 22.0474 41.952C21.8693 41.7739 21.6305 41.6695 21.3789 41.6598C21.1272 41.6501 20.8811 41.7357 20.6898 41.8995L17.8998 44.6895C14.9891 41.4651 13.2766 37.3374 13.0498 32.9995H16.9998C17.265 32.9995 17.5194 32.8942 17.7069 32.7066C17.8944 32.5191 17.9998 32.2647 17.9998 31.9995C17.9998 31.7343 17.8944 31.48 17.7069 31.2924C17.5194 31.1049 17.265 30.9995 16.9998 30.9995H13.0498C13.2766 26.6616 14.9891 22.5339 17.8998 19.3095L20.6898 22.0995C20.8772 22.2858 21.1306 22.3903 21.3948 22.3903C21.659 22.3903 21.9124 22.2858 22.0998 22.0995C22.2861 21.9122 22.3906 21.6587 22.3906 21.3945C22.3906 21.1303 22.2861 20.8769 22.0998 20.6895L19.3098 17.8995C22.5342 14.9889 26.6619 13.2763 30.9998 13.0495V16.9995C30.9998 17.2647 31.1052 17.5191 31.2927 17.7066C31.4802 17.8942 31.7346 17.9995 31.9998 17.9995C32.265 17.9995 32.5194 17.8942 32.7069 17.7066C32.8944 17.5191 32.9998 17.2647 32.9998 16.9995V13.0495C37.3377 13.2763 41.4654 14.9889 44.6898 17.8995L41.8998 20.6895C41.7136 20.8769 41.609 21.1303 41.609 21.3945C41.609 21.6587 41.7136 21.9122 41.8998 22.0995C42.0872 22.2858 42.3406 22.3903 42.6048 22.3903C42.869 22.3903 43.1224 22.2858 43.3098 22.0995L46.0998 19.3095C49.0287 22.5269 50.7592 26.6554 50.9998 30.9995H46.9998C46.7346 30.9995 46.4802 31.1049 46.2927 31.2924C46.1052 31.48 45.9998 31.7343 45.9998 31.9995C45.9998 32.2647 46.1052 32.5191 46.2927 32.7066C46.4802 32.8942 46.7346 32.9995 46.9998 32.9995H50.9998C50.7592 37.3437 49.0287 41.4722 46.0998 44.6895L43.3098 41.8995Z" fill="#ffffff" id="id_101"></path>
<path d="M33 31.59V25C33 24.7348 32.8947 24.4804 32.7071 24.2929C32.5196 24.1054 32.2652 24 32 24C31.7348 24 31.4804 24.1054 31.2929 24.2929C31.1054 24.4804 31 24.7348 31 25V32C30.9993 32.1316 31.0245 32.2621 31.0742 32.3839C31.124 32.5057 31.1973 32.6166 31.29 32.71L38.29 39.71C38.383 39.8037 38.4936 39.8781 38.6154 39.9289C38.7373 39.9797 38.868 40.0058 39 40.0058C39.132 40.0058 39.2627 39.9797 39.3846 39.9289C39.5065 39.8781 39.6171 39.8037 39.71 39.71C39.8037 39.617 39.8781 39.5064 39.9289 39.3846C39.9797 39.2627 40.0058 39.132 40.0058 39C40.0058 38.868 39.9797 38.7373 39.9289 38.6154C39.8781 38.4936 39.8037 38.383 39.71 38.29L33 31.59Z" fill="#ffffff" id="id_102"></path>
</svg>