<svg xmlns="http://www.w3.org/2000/svg" xml:space="preserve" width="6.72in" height="6.72in" style="shape-rendering:geometricPrecision; text-rendering:geometricPrecision; image-rendering:optimizeQuality; fill-rule:evenodd; clip-rule:evenodd" viewBox="0 0 6720 6720" xmlns:xlink="http://www.w3.org/1999/xlink">
<defs>
<style type="text/css">
   
    .fil1 {fill:none}
    .fil0 {fill:black;fill-rule:nonzero}
   
  </style>
</defs>
<g id="Layer_x0020_1">
<metadata id="CorelCorpID_0Corel-Layer"></metadata>
<path class="fil0" d="M1752 3846c0,-45 -37,-82 -82,-82 -45,0 -82,37 -82,82l0 1732c0,45 37,82 82,82 45,0 82,-37 82,-82l0 -1732z" id="id_101" style="fill: rgb(255, 255, 255);"></path>
<path class="fil0" d="M2876 3758c0,-45 -37,-82 -82,-82 -45,0 -82,37 -82,82l0 1819c0,45 37,82 82,82 45,0 82,-37 82,-82l0 -1819z" id="id_102" style="fill: rgb(250, 254, 255);"></path>
<path class="fil0" d="M4001 3433c0,-45 -37,-82 -82,-82 -45,0 -82,37 -82,82l0 2145c0,45 37,82 82,82 45,0 82,-37 82,-82l0 -2145z" id="id_103" style="fill: rgb(255, 255, 255);"></path>
<path class="fil0" d="M5125 2841c0,-45 -37,-82 -82,-82 -45,0 -82,37 -82,82l0 2737c0,45 37,82 82,82 45,0 82,-37 82,-82l0 -2737z" id="id_104" style="fill: rgb(255, 255, 255);"></path>
<path class="fil0" d="M885 3466c-45,-2 -83,33 -85,78 -2,45 33,83 78,85 8,0 2803,157 5016,-2426 29,-34 25,-86 -9,-115 -34,-29 -86,-25 -115,9 -2160,2521 -4877,2369 -4885,2369z" id="id_105" style="fill: rgb(255, 255, 255);"></path>
<path class="fil0" d="M4399 1061c-45,0 -82,36 -82,82 0,45 36,82 82,82l1358 0 0 1358c0,45 36,82 82,82 45,0 82,-36 82,-82 0,-480 0,-960 0,-1439 0,-45 -37,-82 -82,-82l-1439 0z" id="id_106" style="fill: rgb(255, 255, 255);"></path>
</g>
<rect class="fil1" width="6720" height="6720" id="id_107"></rect>
</svg>