<svg width="64" height="64" viewBox="0 0 64 64" fill="none" xmlns="http://www.w3.org/2000/svg">
<path d="M60.1698 53.18C60.9971 51.1784 61.2142 48.977 60.7938 46.8524C60.3734 44.7278 59.3343 42.7749 57.8072 41.2392C56.28 39.7035 54.333 38.6535 52.2108 38.2213C50.0885 37.7891 47.8859 37.9939 45.8798 38.81L43.1998 36.12C43.011 35.9326 42.7558 35.8275 42.4898 35.8275C42.2238 35.8275 41.9686 35.9326 41.7798 36.12L41.0798 36.83L38.0798 33.84C40.287 30.8537 41.6192 27.3118 41.9272 23.6111C42.2352 19.9104 41.5068 16.1971 39.8236 12.887C38.1404 9.57688 35.5688 6.80077 32.397 4.8696C29.2252 2.93842 25.5783 1.92845 21.8649 1.95282C18.1515 1.97718 14.5182 3.03491 11.372 5.00753C8.22576 6.98015 5.69087 9.78977 4.05123 13.1217C2.4116 16.4536 1.73197 20.1762 2.08849 23.8725C2.445 27.5688 3.82357 31.0929 6.06978 34.05C6.02621 34.3648 6.00283 34.6822 5.99978 35V36C6.00175 36.2651 6.10558 36.5193 6.28978 36.71L8.99978 39.41V42C9.00075 43.2531 9.3381 44.4831 9.97662 45.5613C10.6151 46.6396 11.5314 47.5267 12.6298 48.13L12.3098 50.06C12.0744 49.9802 11.8177 49.9909 11.5898 50.09L2.58978 54.09C2.41333 54.1675 2.26344 54.295 2.15859 54.4567C2.05375 54.6184 1.99854 54.8073 1.99978 55V61C1.99978 61.2652 2.10514 61.5196 2.29267 61.7071C2.48021 61.8946 2.73456 62 2.99978 62H28.9998C29.265 62 29.5194 61.8946 29.7069 61.7071C29.8944 61.5196 29.9998 61.2652 29.9998 61V55C30.001 54.8073 29.9458 54.6184 29.841 54.4567C29.7361 54.295 29.5862 54.1675 29.4098 54.09L20.4098 50.09C20.1818 49.9909 19.9252 49.9802 19.6898 50.06L19.3698 48.13C20.4681 47.5267 21.3844 46.6396 22.0229 45.5613C22.6615 44.4831 22.9988 43.2531 22.9998 42V41.95C26.9166 41.7619 30.6894 40.415 33.8398 38.08L36.8298 41.08L36.1198 41.78C35.9324 41.9688 35.8273 42.224 35.8273 42.49C35.8273 42.756 35.9324 43.0112 36.1198 43.2L39.3198 46.4C38.8669 48.2339 38.8953 50.1537 39.4022 51.9734C39.909 53.7931 40.8772 55.4511 42.2129 56.7869C43.5486 58.1226 45.2066 59.0908 47.0264 59.5976C48.8461 60.1045 50.7659 60.1329 52.5998 59.68L53.3798 60.46C54.3207 61.395 55.5933 61.9198 56.9198 61.9198C58.2463 61.9198 59.5189 61.395 60.4598 60.46C61.9398 58.98 62.6798 56.23 60.1698 53.18ZM20.2198 52.19L27.9998 55.65V60H3.99978V55.65L11.7798 52.19L15.2898 55.71C15.4786 55.8973 15.7338 56.0025 15.9998 56.0025C16.2658 56.0025 16.521 55.8973 16.7098 55.71L20.2198 52.19ZM14.0698 51.66L14.5398 48.84C15.5014 49.0533 16.4981 49.0533 17.4598 48.84L17.9298 51.66L15.9998 53.59L14.0698 51.66ZM20.9998 42C20.9998 43.3261 20.473 44.5978 19.5353 45.5355C18.5976 46.4732 17.3259 47 15.9998 47C14.6737 47 13.4019 46.4732 12.4642 45.5355C11.5266 44.5978 10.9998 43.3261 10.9998 42V36.62L14.1198 35.06L20.9998 36.78V42ZM22.2398 35.03L14.2398 33.03C14.0077 32.9713 13.7622 32.9998 13.5498 33.11L9.54978 35.11C9.38399 35.192 9.24454 35.3189 9.14731 35.4762C9.05007 35.6336 8.99896 35.815 8.99978 36V36.59L7.99978 35.59V35C7.99978 33.6739 8.52656 32.4021 9.46425 31.4645C10.4019 30.5268 11.6737 30 12.9998 30H18.9998C19.6564 30 20.3066 30.1293 20.9132 30.3806C21.5198 30.6319 22.071 31.0002 22.5353 31.4645C22.9996 31.9288 23.3679 32.48 23.6192 33.0866C23.8705 33.6932 23.9998 34.3434 23.9998 35V35.59L22.9998 36.59V36C22.9996 35.7767 22.9247 35.5598 22.7869 35.384C22.6492 35.2082 22.4566 35.0836 22.2398 35.03ZM27.6998 17L26.9898 17.47C25.5131 18.4578 23.7764 18.9851 21.9998 18.9851C20.2232 18.9851 18.4865 18.4578 17.0098 17.47L16.2998 17H27.6998ZM19.9998 15V13H23.9998V15H19.9998ZM21.9998 20.99C24.1726 20.9887 26.2959 20.3413 28.0998 19.13L29.9998 17.87V29H22.5898C21.5061 28.3469 20.2651 28.0012 18.9998 28H13.9998V17.87L15.8998 19.13C17.7036 20.3413 19.827 20.9887 21.9998 20.99V20.99ZM22.9998 39.95V39.41L25.7098 36.71C25.894 36.5193 25.9978 36.2651 25.9998 36V35C25.9993 33.5691 25.5595 32.1729 24.7398 31H30.9998C31.265 31 31.5194 30.8946 31.7069 30.7071C31.8944 30.5196 31.9998 30.2652 31.9998 30V16C31.9998 15.7348 31.8944 15.4804 31.7069 15.2929C31.5194 15.1054 31.265 15 30.9998 15H25.9998V12C25.9998 11.7348 25.8944 11.4804 25.7069 11.2929C25.5194 11.1054 25.265 11 24.9998 11H18.9998C18.7346 11 18.4802 11.1054 18.2927 11.2929C18.1051 11.4804 17.9998 11.7348 17.9998 12V15H12.9998C12.7346 15 12.4802 15.1054 12.2927 15.2929C12.1051 15.4804 11.9998 15.7348 11.9998 16V28.08C10.9202 28.2372 9.892 28.6435 8.99645 29.2665C8.1009 29.8896 7.36255 30.7124 6.83978 31.67C4.71031 28.3377 3.7375 24.3968 4.07166 20.4564C4.40583 16.5159 6.02837 12.7952 8.68858 9.86904C11.3488 6.94291 14.8986 4.97428 18.7895 4.26733C22.6804 3.56038 26.6958 4.15446 30.2153 5.95778C33.7349 7.76109 36.5626 10.6733 38.2615 14.2443C39.9605 17.8154 40.4361 21.8466 39.615 25.715C38.7938 29.5834 36.7216 33.0737 33.7184 35.6467C30.7153 38.2196 26.9484 39.7319 22.9998 39.95V39.95ZM35.3898 36.81C35.8878 36.362 36.3618 35.888 36.8098 35.39L39.6598 38.25L38.2498 39.66L35.3898 36.81ZM38.2398 42.49L42.4898 38.24L44.0198 39.78C42.3091 40.898 40.939 42.4652 40.0598 44.31L38.2398 42.49ZM49.9998 58C48.2197 58 46.4797 57.4722 44.9996 56.4832C43.5196 55.4943 42.3661 54.0887 41.6849 52.4441C41.0037 50.7996 40.8254 48.99 41.1727 47.2442C41.52 45.4984 42.3771 43.8947 43.6358 42.636C44.8945 41.3774 46.4981 40.5202 48.244 40.1729C49.9898 39.8257 51.7994 40.0039 53.4439 40.6851C55.0885 41.3663 56.4941 42.5198 57.483 43.9999C58.4719 45.4799 58.9998 47.22 58.9998 49C58.9961 51.3858 58.0467 53.6728 56.3596 55.3599C54.6726 57.0469 52.3856 57.9963 49.9998 58V58ZM59.0398 59.04C58.4773 59.6018 57.7148 59.9174 56.9198 59.9174C56.1248 59.9174 55.3623 59.6018 54.7998 59.04L54.6898 58.94C56.4784 58.0949 58.0081 56.7863 59.1198 55.15C60.0498 56.63 60.0598 58.03 59.0398 59.04Z" fill="#ffffff" id="id_101"></path>
<path d="M19 39H17V41H19V39Z" fill="#ffffff" id="id_102"></path>
<path d="M15 39H13V41H15V39Z" fill="#ffffff" id="id_103"></path>
<path d="M23 23H21V25H23V23Z" fill="#ffffff" id="id_104"></path>
<path d="M52.293 45.293L50 47.586L47.707 45.293L46.293 46.707L48.586 49L46.293 51.293L47.707 52.707L50 50.414L52.293 52.707L53.707 51.293L51.414 49L53.707 46.707L52.293 45.293Z" fill="#ffffff" id="id_105"></path>
</svg>