<svg width="64" height="64" viewBox="0 0 64 64" fill="none" xmlns="http://www.w3.org/2000/svg">
<path d="M56.3099 24.11L32.5899 12.11H32.5199C32.4552 12.0841 32.3882 12.064 32.3199 12.05H32.1399L31.9999 12C31.9316 12.014 31.8647 12.0341 31.7999 12.06H31.7299L7.99993 24.11C7.83613 24.1939 7.69866 24.3214 7.60267 24.4784C7.50668 24.6355 7.45589 24.816 7.45589 25C7.45589 25.184 7.50668 25.3645 7.60267 25.5216C7.69866 25.6786 7.83613 25.8061 7.99993 25.89L9.16993 26.48V35.18C8.50271 35.4159 7.94037 35.8801 7.5823 36.4905C7.22422 37.1009 7.09346 37.8182 7.21313 38.5157C7.3328 39.2132 7.6952 39.846 8.23627 40.3021C8.77734 40.7582 9.46224 41.0084 10.1699 41.0084C10.8776 41.0084 11.5625 40.7582 12.1036 40.3021C12.6447 39.846 13.0071 39.2132 13.1267 38.5157C13.2464 37.8182 13.1156 37.1009 12.7576 36.4905C12.3995 35.8801 11.8371 35.4159 11.1699 35.18V27.5L16.2899 30.09V47.78C16.2899 47.78 16.2899 47.78 16.2899 47.84C16.4599 51.84 30.5399 52 32.1599 52C33.7799 52 47.8599 51.88 47.9999 47.84C47.9999 47.84 47.9999 47.84 47.9999 47.78V30.09L56.2899 25.89C56.4537 25.8061 56.5912 25.6786 56.6872 25.5216C56.7832 25.3645 56.834 25.184 56.834 25C56.834 24.816 56.7832 24.6355 56.6872 24.4784C56.5912 24.3214 56.4537 24.1939 56.2899 24.11H56.3099ZM10.1399 39C9.94215 39 9.74881 38.9414 9.58436 38.8315C9.41991 38.7216 9.29174 38.5654 9.21605 38.3827C9.14036 38.2 9.12056 37.9989 9.15914 37.8049C9.19773 37.6109 9.29297 37.4327 9.43282 37.2929C9.57267 37.153 9.75086 37.0578 9.94484 37.0192C10.1388 36.9806 10.3399 37.0004 10.5226 37.0761C10.7053 37.1518 10.8615 37.28 10.9714 37.4444C11.0813 37.6089 11.1399 37.8022 11.1399 38C11.1399 38.2652 11.0346 38.5196 10.847 38.7071C10.6595 38.8946 10.4051 39 10.1399 39ZM45.9999 47.7C45.4999 48.53 40.4999 50 32.1199 50C23.7399 50 18.7999 48.54 18.2599 47.71V31.1L31.6899 37.89H31.8099H31.8899C31.973 37.8998 32.0569 37.8998 32.1399 37.89C32.223 37.8998 32.3069 37.8998 32.3899 37.89H32.4699H32.5899L45.9999 31.1V47.7ZM46.6099 28.55L32.1399 35.88L12.6099 26H32.1399C32.4051 26 32.6595 25.8946 32.847 25.7071C33.0346 25.5196 33.1399 25.2652 33.1399 25C33.1399 24.7348 33.0346 24.4804 32.847 24.2929C32.6595 24.1054 32.4051 24 32.1399 24H12.6099L32.1399 14.12L53.6499 25L46.6099 28.55Z" fill="#ffffff" id="id_101"></path>
</svg>