<svg xmlns="http://www.w3.org/2000/svg" viewBox="0 0 64 64"><title>1</title><g id="Layer_6" data-name="Layer 6"><path d="M60,50H48.67L61.4,37.6a2,2,0,1,0-2.79-2.87L42.94,50H37.66L28.8,27.35,47.63,20a2,2,0,0,0,1.14-2.59h0A24.21,24.21,0,0,0,3.67,35h0a2,2,0,0,0,2.59,1.13l18.82-7.35L33.36,50H17.5a2,2,0,0,0-.65.11L3.35,54.73a2,2,0,1,0,1.3,3.78L17.83,54h.54v2.63a2,2,0,0,0,4,0V54H34.93l2.63,6.73a2,2,0,1,0,3.72-1.46L39.22,54h14.2v2.63a2,2,0,0,0,4,0V54H60a2,2,0,0,0,0-4ZM17.44,27.5c-3.5-10.26-2.19-18.7,1.42-20.11,1.88-.73,4.54.33,7.32,2.91a33.67,33.67,0,0,1,7.36,10.91ZM44.21,17l-7,2.72A37.88,37.88,0,0,0,28.9,7.38q-.77-.72-1.54-1.32A20.24,20.24,0,0,1,44.21,17ZM7.7,18.11a20.18,20.18,0,0,1,4.07-6C11,16.72,11.56,22.69,13.72,29l-7,2.72A20.06,20.06,0,0,1,7.7,18.11Z" id="id_101" style="fill: rgb(255, 255, 255);"></path></g></svg>