<svg width="64" height="64" viewBox="0 0 64 64" fill="none" xmlns="http://www.w3.org/2000/svg">
<path d="M32 16C33.221 16 34 16.592 34 17C34 17.2652 34.1054 17.5196 34.2929 17.7071C34.4804 17.8946 34.7348 18 35 18C35.2652 18 35.5196 17.8946 35.7071 17.7071C35.8946 17.5196 36 17.2652 36 17C36 15.579 34.741 14.429 33 14.1V13C33 12.7348 32.8946 12.4804 32.7071 12.2929C32.5196 12.1054 32.2652 12 32 12C31.7348 12 31.4804 12.1054 31.2929 12.2929C31.1054 12.4804 31 12.7348 31 13V14.1C29.259 14.427 28 15.577 28 17C28 18.682 29.757 20 32 20C33.221 20 34 20.592 34 21C34 21.408 33.221 22 32 22C30.779 22 30 21.408 30 21C30 20.7348 29.8946 20.4804 29.7071 20.2929C29.5196 20.1054 29.2652 20 29 20C28.7348 20 28.4804 20.1054 28.2929 20.2929C28.1054 20.4804 28 20.7348 28 21C28 22.421 29.259 23.571 31 23.9V25C31 25.2652 31.1054 25.5196 31.2929 25.7071C31.4804 25.8946 31.7348 26 32 26C32.2652 26 32.5196 25.8946 32.7071 25.7071C32.8946 25.5196 33 25.2652 33 25V23.9C34.741 23.573 36 22.423 36 21C36 19.318 34.243 18 32 18C30.779 18 30 17.408 30 17C30 16.592 30.779 16 32 16Z" fill="#ffffff" id="id_101"></path>
<path d="M28 10H36C36.2652 10 36.5196 9.89464 36.7071 9.70711C36.8946 9.51957 37 9.26522 37 9C37 8.73478 36.8946 8.48043 36.7071 8.29289C36.5196 8.10536 36.2652 8 36 8H28C27.7348 8 27.4804 8.10536 27.2929 8.29289C27.1054 8.48043 27 8.73478 27 9C27 9.26522 27.1054 9.51957 27.2929 9.70711C27.4804 9.89464 27.7348 10 28 10Z" fill="#ffffff" id="id_102"></path>
<path d="M28 30H36C36.2652 30 36.5196 29.8946 36.7071 29.7071C36.8946 29.5196 37 29.2652 37 29C37 28.7348 36.8946 28.4804 36.7071 28.2929C36.5196 28.1054 36.2652 28 36 28H28C27.7348 28 27.4804 28.1054 27.2929 28.2929C27.1054 28.4804 27 28.7348 27 29C27 29.2652 27.1054 29.5196 27.2929 29.7071C27.4804 29.8946 27.7348 30 28 30Z" fill="#ffffff" id="id_103"></path>
<path d="M20 42H44C44.2652 42 44.5196 41.8946 44.7071 41.7071C44.8946 41.5196 45 41.2652 45 41C45 40.7348 44.8946 40.4804 44.7071 40.2929C44.5196 40.1054 44.2652 40 44 40H20C19.7348 40 19.4804 40.1054 19.2929 40.2929C19.1054 40.4804 19 40.7348 19 41C19 41.2652 19.1054 41.5196 19.2929 41.7071C19.4804 41.8946 19.7348 42 20 42Z" fill="#ffffff" id="id_104"></path>
<path d="M20 38H44C44.2652 38 44.5196 37.8946 44.7071 37.7071C44.8946 37.5196 45 37.2652 45 37C45 36.7348 44.8946 36.4804 44.7071 36.2929C44.5196 36.1054 44.2652 36 44 36H20C19.7348 36 19.4804 36.1054 19.2929 36.2929C19.1054 36.4804 19 36.7348 19 37C19 37.2652 19.1054 37.5196 19.2929 37.7071C19.4804 37.8946 19.7348 38 20 38Z" fill="#ffffff" id="id_105"></path>
<path d="M40 44H20C19.7348 44 19.4804 44.1054 19.2929 44.2929C19.1054 44.4804 19 44.7348 19 45C19 45.2652 19.1054 45.5196 19.2929 45.7071C19.4804 45.8946 19.7348 46 20 46H40C40.2652 46 40.5196 45.8946 40.7071 45.7071C40.8946 45.5196 41 45.2652 41 45C41 44.7348 40.8946 44.4804 40.7071 44.2929C40.5196 44.1054 40.2652 44 40 44Z" fill="#ffffff" id="id_106"></path>
<path d="M40 48H20C19.7348 48 19.4804 48.1054 19.2929 48.2929C19.1054 48.4804 19 48.7348 19 49C19 49.2652 19.1054 49.5196 19.2929 49.7071C19.4804 49.8946 19.7348 50 20 50H40C40.2652 50 40.5196 49.8946 40.7071 49.7071C40.8946 49.5196 41 49.2652 41 49C41 48.7348 40.8946 48.4804 40.7071 48.2929C40.5196 48.1054 40.2652 48 40 48Z" fill="#ffffff" id="id_107"></path>
<path d="M40 30H41C41.2652 30 41.5196 29.8946 41.7071 29.7071C41.8946 29.5196 42 29.2652 42 29C42 28.7348 41.8946 28.4804 41.7071 28.2929C41.5196 28.1054 41.2652 28 41 28H40C39.7348 28 39.4804 28.1054 39.2929 28.2929C39.1054 28.4804 39 28.7348 39 29C39 29.2652 39.1054 29.5196 39.2929 29.7071C39.4804 29.8946 39.7348 30 40 30Z" fill="#ffffff" id="id_108"></path>
<path d="M23 30H24C24.2652 30 24.5196 29.8946 24.7071 29.7071C24.8946 29.5196 25 29.2652 25 29C25 28.7348 24.8946 28.4804 24.7071 28.2929C24.5196 28.1054 24.2652 28 24 28H23C22.7348 28 22.4804 28.1054 22.2929 28.2929C22.1054 28.4804 22 28.7348 22 29C22 29.2652 22.1054 29.5196 22.2929 29.7071C22.4804 29.8946 22.7348 30 23 30Z" fill="#ffffff" id="id_109"></path>
<path d="M40 10H41C41.2652 10 41.5196 9.89464 41.7071 9.70711C41.8946 9.51957 42 9.26522 42 9C42 8.73478 41.8946 8.48043 41.7071 8.29289C41.5196 8.10536 41.2652 8 41 8H40C39.7348 8 39.4804 8.10536 39.2929 8.29289C39.1054 8.48043 39 8.73478 39 9C39 9.26522 39.1054 9.51957 39.2929 9.70711C39.4804 9.89464 39.7348 10 40 10Z" fill="#ffffff" id="id_110"></path>
<path d="M23 10H24C24.2652 10 24.5196 9.89464 24.7071 9.70711C24.8946 9.51957 25 9.26522 25 9C25 8.73478 24.8946 8.48043 24.7071 8.29289C24.5196 8.10536 24.2652 8 24 8H23C22.7348 8 22.4804 8.10536 22.2929 8.29289C22.1054 8.48043 22 8.73478 22 9C22 9.26522 22.1054 9.51957 22.2929 9.70711C22.4804 9.89464 22.7348 10 23 10Z" fill="#ffffff" id="id_111"></path>
<path d="M53 42.05V24H60C60.2652 24 60.5196 23.8946 60.7071 23.7071C60.8947 23.5196 61 23.2652 61 23V7C61 5.67392 60.4732 4.40215 59.5355 3.46447C58.5979 2.52678 57.3261 2 56 2H16C14.6739 2 13.4022 2.52678 12.4645 3.46447C11.5268 4.40215 11 5.67392 11 7V61C10.9993 61.1978 11.058 61.3913 11.1685 61.5554C11.2791 61.7194 11.4364 61.8464 11.62 61.92C11.7387 61.9761 11.8688 62.0035 12 62C12.2657 62.0008 12.5209 61.8965 12.71 61.71L16 58.41L19.29 61.71C19.4788 61.8974 19.734 62.0025 20 62.0025C20.266 62.0025 20.5212 61.8974 20.71 61.71L24 58.41L27.29 61.71C27.4788 61.8974 27.734 62.0025 28 62.0025C28.266 62.0025 28.5212 61.8974 28.71 61.71L32 58.41L35.29 61.71C35.4788 61.8974 35.734 62.0025 36 62.0025C36.266 62.0025 36.5212 61.8974 36.71 61.71L40 58.41L43.29 61.71C43.4788 61.8974 43.734 62.0025 44 62.0025C44.266 62.0025 44.5212 61.8974 44.71 61.71L46.25 60.17C47.5005 61.0532 48.9371 61.6374 50.4491 61.8778C51.961 62.1181 53.508 62.0081 54.9707 61.5562C56.4334 61.1043 57.7728 60.3225 58.8858 59.2713C59.9987 58.22 60.8554 56.9272 61.3898 55.4926C61.9242 54.0579 62.1221 52.5198 61.9682 50.9966C61.8143 49.4734 61.3128 48.0059 60.5022 46.7071C59.6916 45.4084 58.5937 44.3131 57.293 43.5057C55.9923 42.6982 54.5236 42.2002 53 42.05ZM53 7C53 6.20435 53.3161 5.44129 53.8787 4.87868C54.4413 4.31607 55.2044 4 56 4C56.7957 4 57.5587 4.31607 58.1213 4.87868C58.6839 5.44129 59 6.20435 59 7V22H53V7ZM44 59.59L40.71 56.29C40.5212 56.1026 40.266 55.9975 40 55.9975C39.734 55.9975 39.4788 56.1026 39.29 56.29L36 59.59L32.71 56.29C32.5212 56.1026 32.266 55.9975 32 55.9975C31.734 55.9975 31.4788 56.1026 31.29 56.29L28 59.59L24.71 56.29C24.5212 56.1026 24.266 55.9975 24 55.9975C23.734 55.9975 23.4788 56.1026 23.29 56.29L20 59.59L16.71 56.29C16.5212 56.1026 16.266 55.9975 16 55.9975C15.734 55.9975 15.4788 56.1026 15.29 56.29L13 58.59V7C13.0024 6.20508 13.3192 5.4434 13.8813 4.8813C14.4434 4.31921 15.2051 4.00237 16 4H52.03C51.3652 4.85902 51.003 5.91376 51 7V42.05C49.141 42.2332 47.3706 42.9345 45.8905 44.0742C44.4104 45.2138 43.2799 46.7461 42.6276 48.4966C41.9753 50.2471 41.8275 52.1455 42.201 53.9758C42.5744 55.8062 43.4541 57.495 44.74 58.85L44 59.59ZM52 60C50.4178 60 48.871 59.5308 47.5554 58.6518C46.2399 57.7727 45.2145 56.5233 44.609 55.0615C44.0035 53.5997 43.845 51.9911 44.1537 50.4393C44.4624 48.8874 45.2243 47.462 46.3432 46.3431C47.462 45.2243 48.8874 44.4624 50.4393 44.1537C51.9911 43.845 53.5997 44.0035 55.0615 44.609C56.5233 45.2145 57.7727 46.2398 58.6518 47.5554C59.5308 48.871 60 50.4177 60 52C59.9971 54.1208 59.1533 56.154 57.6536 57.6536C56.154 59.1533 54.1208 59.9971 52 60V60Z" fill="#ffffff" id="id_112"></path>
<path d="M57.3641 48.6361C57.1765 48.4486 56.9222 48.3433 56.6571 48.3433C56.3919 48.3433 56.1376 48.4486 55.9501 48.6361L51.0001 53.586L48.8781 51.4641C48.6895 51.2819 48.4369 51.1811 48.1747 51.1834C47.9125 51.1857 47.6616 51.2908 47.4762 51.4762C47.2908 51.6616 47.1857 51.9125 47.1834 52.1746C47.1811 52.4368 47.2819 52.6894 47.4641 52.878L50.2931 55.7071C50.4806 55.8945 50.7349 55.9998 51.0001 55.9998C51.2652 55.9998 51.5195 55.8945 51.7071 55.7071L57.3641 50.05C57.5515 49.8625 57.6568 49.6082 57.6568 49.343C57.6568 49.0779 57.5515 48.8236 57.3641 48.6361V48.6361Z" fill="#ffffff" id="id_113"></path>
</svg>