<?xml version="1.0" standalone="no"?>
<!DOCTYPE svg PUBLIC "-//W3C//DTD SVG 20010904//EN"
 "http://www.w3.org/TR/2001/REC-SVG-20010904/DTD/svg10.dtd">
<svg version="1.0" xmlns="http://www.w3.org/2000/svg"
 width="100.000000pt" height="100.000000pt" viewBox="0 0 100.000000 100.000000"
 preserveAspectRatio="xMidYMid meet">
<metadata>
Created by potrace 1.16, written by Peter Selinger 2001-2019
</metadata>
<g transform="translate(0.000000,100.000000) scale(0.100000,-0.100000)"
fill="#000000" stroke="none">
<path d="M365 946 c-68 -22 -126 -56 -176 -103 l-49 -46 0 72 c0 64 -2 71 -20
71 -19 0 -20 -7 -20 -110 l0 -110 110 0 c103 0 110 1 110 20 0 18 -7 20 -72
20 l-73 1 45 41 c142 129 359 145 516 37 59 -40 102 -93 138 -169 29 -60 31
-73 31 -171 0 -101 -1 -108 -37 -181 -24 -47 -55 -91 -84 -117 -51 -48 -153
-99 -210 -107 -101 -13 -104 -14 -104 -36 0 -19 4 -20 78 -16 154 9 296 108
370 257 37 74 37 76 37 200 0 121 -1 129 -32 194 -45 95 -127 178 -222 225
-71 35 -80 37 -185 39 -71 2 -125 -2 -151 -11z"/>
<path d="M480 751 c0 -24 -5 -29 -31 -35 -17 -3 -44 -19 -60 -35 -25 -25 -29
-37 -29 -83 0 -74 29 -102 135 -127 71 -17 95 -35 95 -71 0 -44 -34 -70 -92
-70 -50 0 -88 24 -88 55 0 9 -9 15 -25 15 -60 0 -5 -103 61 -116 29 -5 34 -10
34 -35 0 -22 5 -29 20 -29 15 0 20 7 20 29 0 24 5 29 31 35 17 3 44 19 60 35
24 24 29 38 29 76 0 80 -15 94 -133 127 -40 10 -77 24 -84 30 -21 17 -16 72
10 96 45 42 137 21 137 -31 0 -11 8 -17 25 -17 51 0 19 90 -40 111 -29 11 -35
18 -35 41 0 21 -5 28 -20 28 -15 0 -20 -7 -20 -29z"/>
</g>
</svg>
