<svg version="1.0" id="Layer_1" xmlns="http://www.w3.org/2000/svg" xmlns:xlink="http://www.w3.org/1999/xlink" x="0px" y="0px" width="708.66px" height="708.66px" viewBox="0 0 708.66 708.66" enable-background="new 0 0 708.66 708.66" xml:space="preserve">
<g>
<polygon fill="none" stroke="#ffffff" stroke-width="12" stroke-linecap="round" stroke-linejoin="round" stroke-miterlimit="10" points="
		531.489,611.225 177.159,611.225 248.021,248.02 460.616,248.02 	" id="id_101"></polygon>
<rect x="177.159" y="611.225" fill="none" stroke="#ffffff" stroke-width="12" stroke-linecap="round" stroke-linejoin="round" stroke-miterlimit="10" width="354.33" height="26.563" id="id_102"></rect>
<path fill="none" stroke="#ffffff" stroke-width="12" stroke-linecap="round" stroke-linejoin="round" stroke-miterlimit="10" d="
		M604.561,566.915l5.542,44.311L604.561,566.915z" id="id_103"></path>
<path fill="none" stroke="#ffffff" stroke-width="12" stroke-linecap="round" stroke-linejoin="round" stroke-miterlimit="10" d="
		M104.076,566.915l-5.53,44.311L104.076,566.915z" id="id_104"></path>
<path fill="none" stroke="#ffffff" stroke-width="12" stroke-linecap="round" stroke-linejoin="round" stroke-miterlimit="10" d="
		M597.041,470.675c4.077,1.44,7.007,5.298,7.007,9.863c0,8.936-4.541,16.187-10.205,16.431c-5.2,16.04-15.796,27.051-28.027,27.051
		c-12.256,0-22.827-11.011-28.052-27.051c-5.64-0.244-10.181-7.495-10.181-16.431c0-4.565,2.93-8.423,7.007-9.863v-8.984
		c1.904-15.576,15.137-27.636,31.226-27.636c16.064,0,29.321,12.06,31.226,27.636V470.675z" id="id_105"></path>
<path fill="none" stroke="#ffffff" stroke-width="12" stroke-linecap="round" stroke-linejoin="round" stroke-miterlimit="10" d="
		M174.059,470.675c4.077,1.44,7.007,5.298,7.007,9.863c0,8.936-4.541,16.187-10.193,16.431
		c-5.212,16.04-15.808,27.051-28.039,27.051c-12.243,0-22.827-11.011-28.039-27.051c-5.652-0.244-10.193-7.495-10.193-16.431
		c0-4.565,2.93-8.423,7.007-9.863v-8.984c1.904-15.576,15.149-27.636,31.226-27.636s29.321,12.06,31.226,27.636V470.675z" id="id_106"></path>
<path fill="none" stroke="#ffffff" stroke-width="12" stroke-linecap="round" stroke-linejoin="round" stroke-miterlimit="10" d="
		M579.316,328.952c4.077,1.44,7.007,5.298,7.007,9.863c0,8.936-4.541,16.187-10.205,16.431c-5.2,16.04-15.796,27.051-28.027,27.051
		c-12.256,0-22.827-11.011-28.052-27.051c-5.639-0.244-10.18-7.495-10.18-16.431c0-4.565,2.93-8.423,7.007-9.863v-8.983
		c1.903-15.576,15.136-27.637,31.225-27.637c16.064,0,29.321,12.061,31.226,27.637V328.952z" id="id_107"></path>
<path fill="none" stroke="#ffffff" stroke-width="12" stroke-linecap="round" stroke-linejoin="round" stroke-miterlimit="10" d="
		M191.771,328.952c4.077,1.44,7.007,5.298,7.007,9.863c0,8.936-4.541,16.187-10.181,16.431c-5.225,16.04-15.82,27.051-28.052,27.051
		c-12.23,0-22.826-11.011-28.026-27.051c-5.664-0.244-10.205-7.495-10.205-16.431c0-4.565,2.93-8.423,7.007-9.863v-8.983
		c1.904-15.576,15.161-27.637,31.225-27.637c16.089,0,29.321,12.061,31.226,27.637V328.952z" id="id_108"></path>
<path fill="none" stroke="#ffffff" stroke-width="12" stroke-linecap="round" stroke-linejoin="round" stroke-miterlimit="10" d="
		M491.622,283.469l-5.542,44.286L491.622,283.469z" id="id_109"></path>
<path fill="none" stroke="#ffffff" stroke-width="12" stroke-linecap="round" stroke-linejoin="round" stroke-miterlimit="10" d="
		M561.592,187.23c4.077,1.44,7.007,5.273,7.007,9.838c0,8.96-4.541,16.211-10.181,16.455c-5.225,16.04-15.82,27.051-28.052,27.051
		s-22.826-11.011-28.026-27.051c-5.664-0.244-10.205-7.495-10.205-16.455c0-4.564,2.93-8.397,7.007-9.838v-9.009
		c1.904-15.576,15.161-27.637,31.225-27.637c16.089,0,29.321,12.061,31.226,27.637V187.23z" id="id_110"></path>
<path fill="none" stroke="#ffffff" stroke-width="12" stroke-linecap="round" stroke-linejoin="round" stroke-miterlimit="10" d="
		M586.836,425.192l2.441,19.531L586.836,425.192z" id="id_111"></path>
<path fill="none" stroke="#ffffff" stroke-width="12" stroke-linecap="round" stroke-linejoin="round" stroke-miterlimit="10" d="
		M119.359,444.748l2.441-19.556L119.359,444.748z" id="id_112"></path>
<path fill="none" stroke="#ffffff" stroke-width="12" stroke-linecap="round" stroke-linejoin="round" stroke-miterlimit="10" d="
		M569.111,283.469l2.466,19.556L569.111,283.469z" id="id_113"></path>
<path fill="none" stroke="#ffffff" stroke-width="12" stroke-linecap="round" stroke-linejoin="round" stroke-miterlimit="10" d="
		M137.071,303.025l2.441-19.556L137.071,303.025z" id="id_114"></path>
<path fill="none" stroke="#ffffff" stroke-width="12" stroke-linecap="round" stroke-linejoin="round" stroke-miterlimit="10" d="
		M217.015,283.469l5.542,44.286L217.015,283.469z" id="id_115"></path>
<path fill="none" stroke="#ffffff" stroke-width="12" stroke-linecap="round" stroke-linejoin="round" stroke-miterlimit="10" d="
		M209.495,187.23c4.077,1.44,7.007,5.273,7.007,9.838c0,8.96-4.541,16.211-10.205,16.455c-5.2,16.04-15.796,27.051-28.027,27.051
		c-12.243,0-22.827-11.011-28.039-27.051c-5.651-0.244-10.192-7.495-10.192-16.455c0-4.564,2.93-8.397,7.007-9.838v-9.009
		c1.903-15.576,15.148-27.637,31.225-27.637c16.064,0,29.321,12.061,31.226,27.637V187.23z" id="id_116"></path>
<path fill="none" stroke="#ffffff" stroke-width="12" stroke-linecap="round" stroke-linejoin="round" stroke-miterlimit="10" d="
		M315.562,203.733l-5.53,44.312L315.562,203.733z" id="id_117"></path>
<path fill="none" stroke="#ffffff" stroke-width="12" stroke-linecap="round" stroke-linejoin="round" stroke-miterlimit="10" d="
		M393.063,203.733l5.541,44.312L393.063,203.733z" id="id_118"></path>
<path fill="none" stroke="#ffffff" stroke-width="12" stroke-linecap="round" stroke-linejoin="round" stroke-miterlimit="10" d="
		M385.544,107.494c4.077,1.44,7.007,5.298,7.007,9.863c0,8.936-4.541,16.187-10.205,16.431c-5.2,16.04-15.796,27.051-28.027,27.051
		c-12.244,0-22.827-11.011-28.039-27.051c-5.652-0.244-10.193-7.495-10.193-16.431c0-4.565,2.93-8.423,7.007-9.863V98.51
		c1.904-15.576,15.148-27.636,31.226-27.636c16.064,0,29.321,12.06,31.226,27.636V107.494z" id="id_119"></path>
<path fill="none" stroke="#ffffff" stroke-width="12" stroke-linecap="round" stroke-linejoin="round" stroke-miterlimit="10" d="
		M426.29,205.808c0-7.031-2.856-13.378-7.471-17.992l-41.527-17.212c-1.807-0.732-3.442-1.831-4.785-3.198
		c-2.686-2.661-4.346-6.348-4.346-10.449v-1.221c-4.175,3.247-8.862,5.103-13.843,5.103s-9.681-1.855-13.855-5.103v1.221
		c0,4.102-1.66,7.788-4.333,10.449c-1.367,1.367-2.991,2.466-4.797,3.198l-41.528,17.212c-4.614,4.614-7.459,10.961-7.459,17.992
		v42.236H426.29V205.808z" id="id_120"></path>
<path fill="none" stroke="#ffffff" stroke-width="12" stroke-linecap="round" stroke-linejoin="round" stroke-miterlimit="10" d="
		M630.317,550.997l-41.528-17.212c-1.807-0.732-3.442-1.831-4.785-3.198c-2.686-2.661-4.346-6.348-4.346-10.449v-1.221
		c-4.175,3.247-8.862,5.103-13.843,5.103s-9.692-1.855-13.867-5.103v1.221c0,4.102-1.66,7.788-4.321,10.449
		c-1.367,1.367-3.003,2.466-4.81,3.198l-24.463,10.156l13.135,67.284h106.299V568.99
		C637.788,561.959,634.932,555.611,630.317,550.997z" id="id_121"></path>
<path fill="none" stroke="#ffffff" stroke-width="12" stroke-linecap="round" stroke-linejoin="round" stroke-miterlimit="10" d="
		M165.807,533.785c-1.807-0.732-3.431-1.831-4.785-3.198c-2.674-2.661-4.334-6.348-4.334-10.449v-1.221
		c-4.175,3.247-8.874,5.103-13.854,5.103s-9.68-1.855-13.854-5.103v1.221c0,4.102-1.66,7.788-4.334,10.449
		c-1.367,1.367-2.99,2.466-4.797,3.198l-41.528,17.212c-4.614,4.614-7.458,10.962-7.458,17.993v42.235h106.298l13.122-67.284
		L165.807,533.785z" id="id_122"></path>
<path fill="none" stroke="#ffffff" stroke-width="12" stroke-linecap="round" stroke-linejoin="round" stroke-miterlimit="10" d="
		M594.893,267.552L553.34,250.34c-1.807-0.732-3.418-1.831-4.785-3.198c-2.661-2.661-4.321-6.372-4.321-10.449v-1.221
		c-4.175,3.247-8.887,5.103-13.867,5.103s-9.668-1.855-13.842-5.103v1.221c0,4.077-1.66,7.788-4.346,10.449
		c-1.367,1.367-2.979,2.466-4.785,3.198l-41.528,17.212c-0.439,0.415-0.757,0.928-1.172,1.392l11.475,58.813h40.698v-7.787
		c1.903-15.576,15.136-27.637,31.225-27.637c16.064,0,29.321,12.061,31.226,27.637v7.787h23.022v-42.211
		C602.339,278.513,599.482,272.166,594.893,267.552z" id="id_123"></path>
<path fill="none" stroke="#ffffff" stroke-width="12" stroke-linecap="round" stroke-linejoin="round" stroke-miterlimit="10" d="
		M242.771,267.552l-41.528-17.212c-1.807-0.732-3.442-1.831-4.785-3.198c-2.686-2.661-4.346-6.372-4.346-10.449v-1.221
		c-4.175,3.247-8.862,5.103-13.843,5.103s-9.68-1.855-13.854-5.103v1.221c0,4.077-1.66,7.788-4.334,10.449
		c-1.367,1.367-2.99,2.466-4.797,3.198l-41.528,17.212c-4.614,4.614-7.458,10.962-7.458,17.993v42.211h23.022v-7.787
		c1.904-15.576,15.161-27.637,31.225-27.637c16.089,0,29.321,12.061,31.226,27.637v7.787h40.698l11.475-58.813
		C243.54,268.479,243.211,267.967,242.771,267.552z" id="id_124"></path>
<path fill="none" stroke="#ffffff" stroke-width="12" stroke-linecap="round" stroke-linejoin="round" stroke-miterlimit="10" d="
		M612.593,409.274l-41.528-17.212c-1.807-0.732-3.442-1.831-4.785-3.198c-2.686-2.661-4.346-6.348-4.346-10.449v-1.221
		c-4.175,3.247-8.862,5.103-13.843,5.103s-9.692-1.855-13.867-5.103v1.221c0,4.102-1.66,7.788-4.321,10.449
		c-1.367,1.367-3.003,2.466-4.81,3.198l-33.642,13.94l12.378,63.5h30.761v-7.813c1.904-15.576,15.137-27.636,31.226-27.636
		c16.064,0,29.321,12.06,31.226,27.636v7.813h23.022v-42.235C620.063,420.236,617.207,413.888,612.593,409.274z" id="id_125"></path>
<path fill="none" stroke="#ffffff" stroke-width="12" stroke-linecap="round" stroke-linejoin="round" stroke-miterlimit="10" d="
		M183.519,392.062c-1.807-0.732-3.418-1.831-4.785-3.198c-2.661-2.661-4.321-6.348-4.321-10.449v-1.221
		c-4.175,3.247-8.887,5.103-13.867,5.103s-9.668-1.855-13.842-5.103v1.221c0,4.102-1.66,7.788-4.346,10.449
		c-1.367,1.367-2.979,2.466-4.785,3.198l-41.528,17.212c-4.614,4.614-7.471,10.962-7.471,17.993v42.235h23.034v-7.813
		c1.904-15.576,15.149-27.636,31.226-27.636s29.321,12.06,31.226,27.636v7.813h30.749l12.378-63.476L183.519,392.062z" id="id_126"></path>
</g>
</svg>