<svg xmlns="http://www.w3.org/2000/svg" viewBox="0 0 64 64"><g id="_16-Video_Conference" data-name="16-Video Conference"><path d="M59,12H41.9212a6.954,6.954,0,0,0-4.08642-5.37488,5.993,5.993,0,0,0-11.66956,0A6.954,6.954,0,0,0,22.0788,12H5a3.00328,3.00328,0,0,0-3,3V51a3.00328,3.00328,0,0,0,3,3H25.89954c-.46772,2.63531-2.57874,5.16632-3.33381,6H20a1,1,0,0,0,0,2H44a1,1,0,0,0,0-2H41.43427c-.75507-.83368-2.866-3.36469-3.33375-6H59a3.00328,3.00328,0,0,0,3-3V15A3.00328,3.00328,0,0,0,59,12ZM39.88751,12h-3.428a5.973,5.973,0,0,0,1.45838-3.05377A4.96879,4.96879,0,0,1,39.88751,12ZM32,4a4,4,0,1,1-4,4A4.00427,4.00427,0,0,1,32,4ZM26.08209,8.94623A5.973,5.973,0,0,0,27.54047,12h-3.428A4.96879,4.96879,0,0,1,26.08209,8.94623ZM38.83838,60H25.16162a13.61607,13.61607,0,0,0,2.762-6h8.1527A13.61607,13.61607,0,0,0,38.83838,60ZM60,51a.98961.98961,0,0,1-1,1H5a.98961.98961,0,0,1-1-1V15a1.001,1.001,0,0,1,1-1H59a1.001,1.001,0,0,1,1,1ZM57,16H7a.99974.99974,0,0,0-1,1V49a.99943.99943,0,0,0,1,1H57a.99943.99943,0,0,0,1-1V17A.99974.99974,0,0,0,57,16ZM56,32H51V30a3.99509,3.99509,0,0,0-3.38489-3.93781A3.45486,3.45486,0,0,0,48,24.5v-1a3.5,3.5,0,0,0-7,0v1a3.45486,3.45486,0,0,0,.38489,1.56219A3.99509,3.99509,0,0,0,38,30v2H33V18H56ZM43,24.5v-1a1.5,1.5,0,0,1,3,0v1a1.5,1.5,0,0,1-3,0ZM47,28a2.00229,2.00229,0,0,1,2,2v2H40V30a2.00229,2.00229,0,0,1,2-2ZM31,18V32H26V30a3.99509,3.99509,0,0,0-3.38489-3.93781A3.45486,3.45486,0,0,0,23,24.5v-1a3.5,3.5,0,0,0-7,0v1a3.45486,3.45486,0,0,0,.38489,1.56219A3.99509,3.99509,0,0,0,13,30v2H8V18ZM18,24.5v-1a1.5,1.5,0,0,1,3,0v1a1.5,1.5,0,0,1-3,0ZM22,28a2.00229,2.00229,0,0,1,2,2v2H15V30a2.00229,2.00229,0,0,1,2-2ZM18,40.5v-1a1.5,1.5,0,0,1,3,0v1a1.5,1.5,0,0,1-3,0ZM22,44a2.0026,2.0026,0,0,1,2,2v2H15V46a2.0026,2.0026,0,0,1,2-2Zm4,4V46a3.99472,3.99472,0,0,0-3.38489-3.93781A3.45486,3.45486,0,0,0,23,40.5v-1a3.5,3.5,0,0,0-7,0v1a3.45486,3.45486,0,0,0,.38489,1.56219A3.99472,3.99472,0,0,0,13,46v2H8V34H31V48Zm17-7.5v-1a1.5,1.5,0,0,1,3,0v1a1.5,1.5,0,0,1-3,0ZM47,44a2.0026,2.0026,0,0,1,2,2v2H40V46a2.0026,2.0026,0,0,1,2-2Zm4,4V46a3.99472,3.99472,0,0,0-3.38489-3.93781A3.45486,3.45486,0,0,0,48,40.5v-1a3.5,3.5,0,0,0-7,0v1a3.45486,3.45486,0,0,0,.38489,1.56219A3.99472,3.99472,0,0,0,38,46v2H33V34H56V48ZM31,7.99994a1,1,0,1,1,1,1A1,1,0,0,1,31,7.99994Z" id="id_101" style="fill: rgb(255, 255, 255);"></path></g></svg>