<svg xmlns="http://www.w3.org/2000/svg" viewBox="0 0 64 64"><g id="Layer_6" data-name="Layer 6"><path d="M60,24.4a1,1,0,1,0-1.93.53A27,27,0,0,1,14.39,52.46l6.17-1a1,1,0,0,0,.83-1.14,1,1,0,0,0-1.15-.83L12,50.81a1,1,0,0,0-.65.41,1,1,0,0,0-.18.74l1.33,8.2a1,1,0,0,0,1,.84h.16a1,1,0,0,0,.83-1.15l-.87-5.39A29,29,0,0,0,60,24.4Z" id="id_101" style="fill: rgb(255, 255, 255);"></path><path d="M12.9,12.9a27,27,0,0,1,36.74-1.33l-6.19,1.1a1,1,0,0,0,.17,2h.18L52,13.18a1,1,0,0,0,.64-.41,1.05,1.05,0,0,0,.17-.75L51.33,3.84a1,1,0,0,0-2,.35l1,5.31A29,29,0,0,0,4,39.6a1,1,0,0,0,1,.73l.26,0a1,1,0,0,0,.7-1.23A27.08,27.08,0,0,1,12.9,12.9Z" id="id_102" style="fill: rgb(255, 255, 255);"></path><path d="M33.24,31H30.76a2.19,2.19,0,0,1-2.24-2.13,2.08,2.08,0,0,1,.64-1.49,2.33,2.33,0,0,1,1.6-.63h4.72a1,1,0,0,0,0-2H33V22.17a1,1,0,0,0-2,0v2.58h-.24a4.28,4.28,0,0,0-3,1.19,4.13,4.13,0,0,0-1.25,2.93A4.19,4.19,0,0,0,30.76,33h2.48a2.19,2.19,0,0,1,2.24,2.13,2.08,2.08,0,0,1-.64,1.49,2.33,2.33,0,0,1-1.6.63H28.52a1,1,0,1,0,0,2H31v2.58a1,1,0,0,0,2,0V39.25h.24a4.28,4.28,0,0,0,3-1.19,4.13,4.13,0,0,0,1.25-2.93A4.19,4.19,0,0,0,33.24,31Z" id="id_103" style="fill: rgb(255, 255, 255);"></path><path d="M32,16.14A15.86,15.86,0,1,0,47.86,32,15.87,15.87,0,0,0,32,16.14Zm0,29.72A13.86,13.86,0,1,1,45.86,32,13.88,13.88,0,0,1,32,45.86Z" id="id_104" style="fill: rgb(255, 255, 255);"></path></g></svg>